<mxfile host="app.diagrams.net" agent="Mozilla/5.0 (Windows NT 10.0; Win64; x64) AppleWebKit/537.36 (KHTML, like Gecko) Chrome/138.0.0.0 Safari/537.36 Edg/138.0.0.0" version="28.0.6">
  <diagram name="Página-1" id="DdBMksFBqjsVNMTyTA0M">
    <mxGraphModel dx="1143" dy="4260" grid="1" gridSize="10" guides="1" tooltips="1" connect="1" arrows="1" fold="1" page="1" pageScale="1" pageWidth="1200" pageHeight="1920" math="0" shadow="0">
      <root>
        <mxCell id="0" />
        <mxCell id="1" parent="0" />
        <mxCell id="WyhSAhA2KApJdr7Rd0g4-9" style="edgeStyle=orthogonalEdgeStyle;rounded=0;orthogonalLoop=1;jettySize=auto;html=1;entryX=0;entryY=0.5;entryDx=0;entryDy=0;fillColor=#008a00;strokeColor=#005700;" edge="1" parent="1" source="WyhSAhA2KApJdr7Rd0g4-1" target="WyhSAhA2KApJdr7Rd0g4-4">
          <mxGeometry relative="1" as="geometry" />
        </mxCell>
        <mxCell id="WyhSAhA2KApJdr7Rd0g4-1" value="&lt;font style=&quot;font-size: 8px;&quot;&gt;Inicio&lt;/font&gt;" style="ellipse;whiteSpace=wrap;html=1;fillColor=#008a00;fontColor=#ffffff;strokeColor=#005700;" vertex="1" parent="1">
          <mxGeometry x="300" y="-3725" width="40" height="20" as="geometry" />
        </mxCell>
        <mxCell id="WyhSAhA2KApJdr7Rd0g4-12" style="edgeStyle=orthogonalEdgeStyle;rounded=0;orthogonalLoop=1;jettySize=auto;html=1;fillColor=#008a00;strokeColor=#005700;" edge="1" parent="1" source="WyhSAhA2KApJdr7Rd0g4-2">
          <mxGeometry relative="1" as="geometry">
            <mxPoint x="557.5" y="-3770" as="targetPoint" />
          </mxGeometry>
        </mxCell>
        <mxCell id="WyhSAhA2KApJdr7Rd0g4-2" value="&lt;div style=&quot;line-height: 70%;&quot;&gt;&lt;span style=&quot;font-size: 8px;&quot;&gt;Correo&amp;nbsp;&lt;/span&gt;&lt;/div&gt;&lt;div style=&quot;line-height: 70%;&quot;&gt;&lt;span style=&quot;font-size: 8px;&quot;&gt;Valido?&lt;/span&gt;&lt;/div&gt;" style="rhombus;whiteSpace=wrap;html=1;fillColor=#008a00;fontColor=#ffffff;strokeColor=#005700;" vertex="1" parent="1">
          <mxGeometry x="530" y="-3740" width="55" height="50" as="geometry" />
        </mxCell>
        <mxCell id="WyhSAhA2KApJdr7Rd0g4-8" style="edgeStyle=orthogonalEdgeStyle;rounded=0;orthogonalLoop=1;jettySize=auto;html=1;entryX=0;entryY=0.5;entryDx=0;entryDy=0;fillColor=#008a00;strokeColor=#005700;" edge="1" parent="1" source="WyhSAhA2KApJdr7Rd0g4-4" target="WyhSAhA2KApJdr7Rd0g4-7">
          <mxGeometry relative="1" as="geometry" />
        </mxCell>
        <mxCell id="WyhSAhA2KApJdr7Rd0g4-4" value="&lt;font style=&quot;font-size: 7px;&quot;&gt;Iniciar Sesion&lt;/font&gt;" style="rounded=0;whiteSpace=wrap;html=1;fillColor=#008a00;fontColor=#ffffff;strokeColor=#005700;" vertex="1" parent="1">
          <mxGeometry x="360" y="-3725" width="50" height="20" as="geometry" />
        </mxCell>
        <mxCell id="WyhSAhA2KApJdr7Rd0g4-16" style="edgeStyle=orthogonalEdgeStyle;rounded=0;orthogonalLoop=1;jettySize=auto;html=1;exitX=0.5;exitY=0;exitDx=0;exitDy=0;fillColor=#008a00;strokeColor=#005700;" edge="1" parent="1" source="WyhSAhA2KApJdr7Rd0g4-7">
          <mxGeometry relative="1" as="geometry">
            <mxPoint x="465.2380952380952" y="-3735" as="targetPoint" />
          </mxGeometry>
        </mxCell>
        <mxCell id="WyhSAhA2KApJdr7Rd0g4-7" value="&lt;font style=&quot;font-size: 7px;&quot;&gt;Ingresar Correo y Contraseña&lt;/font&gt;" style="rounded=0;whiteSpace=wrap;html=1;fillColor=#008a00;fontColor=#ffffff;strokeColor=#005700;" vertex="1" parent="1">
          <mxGeometry x="430" y="-3735" width="70" height="40" as="geometry" />
        </mxCell>
        <mxCell id="WyhSAhA2KApJdr7Rd0g4-11" style="edgeStyle=orthogonalEdgeStyle;rounded=0;orthogonalLoop=1;jettySize=auto;html=1;entryX=-0.078;entryY=0.495;entryDx=0;entryDy=0;entryPerimeter=0;fillColor=#008a00;strokeColor=#005700;" edge="1" parent="1" source="WyhSAhA2KApJdr7Rd0g4-7" target="WyhSAhA2KApJdr7Rd0g4-2">
          <mxGeometry relative="1" as="geometry" />
        </mxCell>
        <mxCell id="WyhSAhA2KApJdr7Rd0g4-13" value="&lt;font style=&quot;font-size: 8px;&quot;&gt;No&lt;/font&gt;" style="rounded=0;whiteSpace=wrap;html=1;fillColor=#008a00;fontColor=#ffffff;strokeColor=#005700;" vertex="1" parent="1">
          <mxGeometry x="547.5" y="-3790" width="20" height="20" as="geometry" />
        </mxCell>
        <mxCell id="WyhSAhA2KApJdr7Rd0g4-15" style="edgeStyle=orthogonalEdgeStyle;rounded=0;orthogonalLoop=1;jettySize=auto;html=1;entryX=0.5;entryY=0;entryDx=0;entryDy=0;fillColor=#008a00;strokeColor=#005700;" edge="1" parent="1" source="WyhSAhA2KApJdr7Rd0g4-13" target="WyhSAhA2KApJdr7Rd0g4-7">
          <mxGeometry relative="1" as="geometry">
            <mxPoint x="466" y="-3760" as="targetPoint" />
          </mxGeometry>
        </mxCell>
        <mxCell id="WyhSAhA2KApJdr7Rd0g4-21" style="edgeStyle=orthogonalEdgeStyle;rounded=0;orthogonalLoop=1;jettySize=auto;html=1;entryX=0.5;entryY=1;entryDx=0;entryDy=0;fillColor=#008a00;strokeColor=#005700;" edge="1" parent="1" source="WyhSAhA2KApJdr7Rd0g4-17" target="WyhSAhA2KApJdr7Rd0g4-19">
          <mxGeometry relative="1" as="geometry" />
        </mxCell>
        <mxCell id="WyhSAhA2KApJdr7Rd0g4-32" style="edgeStyle=orthogonalEdgeStyle;rounded=0;orthogonalLoop=1;jettySize=auto;html=1;entryX=0;entryY=0.5;entryDx=0;entryDy=0;fillColor=#008a00;strokeColor=#005700;" edge="1" parent="1" source="WyhSAhA2KApJdr7Rd0g4-17" target="WyhSAhA2KApJdr7Rd0g4-31">
          <mxGeometry relative="1" as="geometry" />
        </mxCell>
        <mxCell id="WyhSAhA2KApJdr7Rd0g4-17" value="&lt;div style=&quot;line-height: 70%;&quot;&gt;&lt;span style=&quot;font-size: 8px;&quot;&gt;Pass&amp;nbsp;&lt;/span&gt;&lt;/div&gt;&lt;div style=&quot;line-height: 70%;&quot;&gt;&lt;span style=&quot;font-size: 8px;&quot;&gt;Valido?&lt;/span&gt;&lt;/div&gt;" style="rhombus;whiteSpace=wrap;html=1;fillColor=#008a00;fontColor=#ffffff;strokeColor=#005700;" vertex="1" parent="1">
          <mxGeometry x="650" y="-3740" width="55" height="50" as="geometry" />
        </mxCell>
        <mxCell id="WyhSAhA2KApJdr7Rd0g4-18" style="edgeStyle=orthogonalEdgeStyle;rounded=0;orthogonalLoop=1;jettySize=auto;html=1;entryX=0;entryY=0.5;entryDx=0;entryDy=0;fillColor=#008a00;strokeColor=#005700;" edge="1" parent="1" source="WyhSAhA2KApJdr7Rd0g4-2" target="WyhSAhA2KApJdr7Rd0g4-28">
          <mxGeometry relative="1" as="geometry" />
        </mxCell>
        <mxCell id="WyhSAhA2KApJdr7Rd0g4-27" style="edgeStyle=orthogonalEdgeStyle;rounded=0;orthogonalLoop=1;jettySize=auto;html=1;entryX=0.5;entryY=1;entryDx=0;entryDy=0;fillColor=#008a00;strokeColor=#005700;" edge="1" parent="1" source="WyhSAhA2KApJdr7Rd0g4-19" target="WyhSAhA2KApJdr7Rd0g4-24">
          <mxGeometry relative="1" as="geometry" />
        </mxCell>
        <mxCell id="WyhSAhA2KApJdr7Rd0g4-19" value="&lt;font style=&quot;font-size: 8px;&quot;&gt;No&lt;/font&gt;" style="rounded=0;whiteSpace=wrap;html=1;fillColor=#008a00;fontColor=#ffffff;strokeColor=#005700;" vertex="1" parent="1">
          <mxGeometry x="667.5" y="-3775" width="20" height="20" as="geometry" />
        </mxCell>
        <mxCell id="WyhSAhA2KApJdr7Rd0g4-24" value="&lt;font style=&quot;font-size: 7px;&quot;&gt;Ingrese Correo para enviar cambio de pass&lt;/font&gt;" style="rounded=0;whiteSpace=wrap;html=1;textDirection=ltr;labelPosition=center;verticalLabelPosition=middle;align=center;verticalAlign=middle;spacing=1;spacingBottom=3;fillColor=#008a00;fontColor=#ffffff;strokeColor=#005700;" vertex="1" parent="1">
          <mxGeometry x="705" y="-3830" width="70" height="40" as="geometry" />
        </mxCell>
        <mxCell id="WyhSAhA2KApJdr7Rd0g4-30" style="edgeStyle=orthogonalEdgeStyle;rounded=0;orthogonalLoop=1;jettySize=auto;html=1;entryX=0;entryY=0.5;entryDx=0;entryDy=0;fillColor=#008a00;strokeColor=#005700;" edge="1" parent="1" source="WyhSAhA2KApJdr7Rd0g4-28" target="WyhSAhA2KApJdr7Rd0g4-17">
          <mxGeometry relative="1" as="geometry" />
        </mxCell>
        <mxCell id="WyhSAhA2KApJdr7Rd0g4-28" value="&lt;font style=&quot;font-size: 8px;&quot;&gt;Si&lt;/font&gt;" style="rounded=0;whiteSpace=wrap;html=1;fillColor=#008a00;fontColor=#ffffff;strokeColor=#005700;" vertex="1" parent="1">
          <mxGeometry x="610" y="-3725" width="20" height="20" as="geometry" />
        </mxCell>
        <mxCell id="WyhSAhA2KApJdr7Rd0g4-35" style="edgeStyle=orthogonalEdgeStyle;rounded=0;orthogonalLoop=1;jettySize=auto;html=1;entryX=0;entryY=0.5;entryDx=0;entryDy=0;fillColor=#008a00;strokeColor=#005700;" edge="1" parent="1" source="WyhSAhA2KApJdr7Rd0g4-31" target="WyhSAhA2KApJdr7Rd0g4-34">
          <mxGeometry relative="1" as="geometry" />
        </mxCell>
        <mxCell id="WyhSAhA2KApJdr7Rd0g4-31" value="&lt;font style=&quot;font-size: 8px;&quot;&gt;Si&lt;/font&gt;" style="rounded=0;whiteSpace=wrap;html=1;fillColor=#008a00;fontColor=#ffffff;strokeColor=#005700;" vertex="1" parent="1">
          <mxGeometry x="730" y="-3725" width="20" height="20" as="geometry" />
        </mxCell>
        <mxCell id="WyhSAhA2KApJdr7Rd0g4-33" style="edgeStyle=orthogonalEdgeStyle;rounded=0;orthogonalLoop=1;jettySize=auto;html=1;entryX=0.197;entryY=-0.006;entryDx=0;entryDy=0;entryPerimeter=0;fillColor=#008a00;strokeColor=#005700;" edge="1" parent="1" source="WyhSAhA2KApJdr7Rd0g4-24" target="WyhSAhA2KApJdr7Rd0g4-7">
          <mxGeometry relative="1" as="geometry">
            <mxPoint x="443" y="-3750" as="targetPoint" />
          </mxGeometry>
        </mxCell>
        <mxCell id="WyhSAhA2KApJdr7Rd0g4-39" style="edgeStyle=orthogonalEdgeStyle;rounded=0;orthogonalLoop=1;jettySize=auto;html=1;entryX=0;entryY=0.5;entryDx=0;entryDy=0;fillColor=#008a00;strokeColor=#005700;" edge="1" parent="1" source="WyhSAhA2KApJdr7Rd0g4-34" target="WyhSAhA2KApJdr7Rd0g4-38">
          <mxGeometry relative="1" as="geometry" />
        </mxCell>
        <mxCell id="WyhSAhA2KApJdr7Rd0g4-34" value="&lt;span style=&quot;font-size: 7px;&quot;&gt;Sesion Iniciada&lt;/span&gt;" style="rounded=0;whiteSpace=wrap;html=1;fillColor=#008a00;fontColor=#ffffff;strokeColor=#005700;" vertex="1" parent="1">
          <mxGeometry x="780" y="-3725" width="60" height="20" as="geometry" />
        </mxCell>
        <mxCell id="WyhSAhA2KApJdr7Rd0g4-36" value="Flujo de Inicio de Sesion" style="text;html=1;align=center;verticalAlign=middle;resizable=0;points=[];autosize=1;strokeColor=#005700;fillColor=#008a00;fontColor=#ffffff;" vertex="1" parent="1">
          <mxGeometry x="70" y="-3755" width="150" height="30" as="geometry" />
        </mxCell>
        <mxCell id="WyhSAhA2KApJdr7Rd0g4-37" value="Flujo Cliente" style="text;html=1;align=center;verticalAlign=middle;resizable=0;points=[];autosize=1;strokeColor=#005700;fillColor=#008a00;fontColor=#ffffff;" vertex="1" parent="1">
          <mxGeometry x="100" y="-3580" width="90" height="30" as="geometry" />
        </mxCell>
        <mxCell id="WyhSAhA2KApJdr7Rd0g4-38" value="&lt;span style=&quot;font-size: 7px;&quot;&gt;A&lt;/span&gt;" style="rounded=0;whiteSpace=wrap;html=1;fillColor=#008a00;fontColor=#ffffff;strokeColor=#005700;" vertex="1" parent="1">
          <mxGeometry x="870" y="-3725" width="20" height="20" as="geometry" />
        </mxCell>
        <mxCell id="WyhSAhA2KApJdr7Rd0g4-40" value="&lt;span style=&quot;font-size: 7px;&quot;&gt;A&lt;/span&gt;" style="rounded=0;whiteSpace=wrap;html=1;fillColor=#008a00;fontColor=#ffffff;strokeColor=#005700;" vertex="1" parent="1">
          <mxGeometry x="270" y="-3580" width="20" height="20" as="geometry" />
        </mxCell>
      </root>
    </mxGraphModel>
  </diagram>
</mxfile>
